<svg id="Layer_1" enable-background="new 0 0 256 256" height="512" viewBox="0 0 256 256" width="512" xmlns="http://www.w3.org/2000/svg"><path d="m218.837 247.055h-18.383c-5.342 0-9.673-4.331-9.673-9.673v-21.365h37.729v21.365c0 5.342-4.331 9.673-9.673 9.673z" fill="#526faa"/><path d="m228.588 216.017h-201.196c-10.684 0-19.346-8.661-19.346-19.346v-38.463c0-10.684 8.661-19.346 19.346-19.346h201.196c10.684 0 19.346 8.661 19.346 19.346v38.463c0 10.685-8.662 19.346-19.346 19.346z" fill="#fcc24c"/><path d="m212.443 112.187h34.72c2.671 0 4.836 2.165 4.836 4.836v17.003c0 2.671-2.165 4.836-4.836 4.836h-34.72z" fill="#fcc24c"/><path d="m43.557 112.187h-34.721c-2.671 0-4.836 2.165-4.836 4.836v17.003c0 2.671 2.165 4.836 4.836 4.836h34.72v-26.675z" fill="#fcc24c"/><path d="m55.526 247.055h-18.384c-5.342 0-9.673-4.331-9.673-9.673v-21.365h37.729v21.365c.001 5.342-4.33 9.673-9.672 9.673z" fill="#526faa"/><path d="m221.739 216.017v21.365c0 5.342-4.331 9.673-9.673 9.673h6.771c5.342 0 9.673-4.331 9.673-9.673v-21.365z" fill="#34518c"/><path d="m34.241 216.017v21.365c0 5.342 4.331 9.673 9.673 9.673h-6.771c-5.342 0-9.673-4.331-9.673-9.673v-21.365z" fill="#708dc8"/><path d="m228.588 138.863h-9.673c10.684 0 19.346 8.661 19.346 19.346v38.463c0 10.684-8.661 19.346-19.346 19.346h9.673c10.684 0 19.346-8.661 19.346-19.346v-38.463c0-10.685-8.662-19.346-19.346-19.346z" fill="#dea42e"/><path d="m27.392 138.863h9.673c-10.684 0-19.346 8.661-19.346 19.346v38.463c0 10.684 8.661 19.346 19.346 19.346h-9.673c-10.684 0-19.346-8.661-19.346-19.346v-38.463c0-10.685 8.661-19.346 19.346-19.346z" fill="#fce06a"/><path d="m65.3 189.307h-57.254v-31.098h47.581c5.342 0 9.673 4.331 9.673 9.673z" fill="#f4efed"/><path d="m190.679 189.307h57.254v-31.098h-47.581c-5.342 0-9.673 4.331-9.673 9.673z" fill="#f4efed"/><path d="m13.673 134.026v-17.003c0-2.671 2.165-4.837 4.836-4.837h-9.673c-2.671 0-4.836 2.166-4.836 4.837v17.003c0 2.671 2.165 4.837 4.836 4.837h9.673c-2.671 0-4.836-2.166-4.836-4.837z" fill="#fce06a"/><path d="m247.163 112.187h-9.673c2.671 0 4.836 2.166 4.836 4.837v17.003c0 2.671-2.165 4.837-4.836 4.837h9.673c2.671 0 4.837-2.166 4.837-4.837v-17.003c0-2.672-2.165-4.837-4.837-4.837z" fill="#dea42e"/><g fill="#690589"><path d="m43.557 140.863h-34.721c-3.77 0-6.836-3.067-6.836-6.836v-17.003c0-3.77 3.067-6.836 6.836-6.836h34.72c1.104 0 2 .896 2 2v26.676c.001 1.103-.895 1.999-1.999 1.999zm-34.721-26.676c-1.564 0-2.836 1.272-2.836 2.836v17.003c0 1.564 1.272 2.836 2.836 2.836h32.72v-22.676h-32.72z"/><path d="m247.164 140.863h-34.72c-1.104 0-2-.896-2-2v-26.676c0-1.104.896-2 2-2h34.72c3.77 0 6.836 3.067 6.836 6.836v17.003c0 3.77-3.067 6.837-6.836 6.837zm-32.721-4h32.72c1.564 0 2.836-1.272 2.836-2.836v-17.003c0-1.564-1.272-2.836-2.836-2.836h-32.72z"/><path d="m228.588 218.018h-201.196c-11.77 0-21.346-9.576-21.346-21.346v-38.463c0-11.77 9.576-21.346 21.346-21.346h201.196c11.77 0 21.346 9.576 21.346 21.346v38.463c0 11.77-9.576 21.346-21.346 21.346zm-201.196-77.155c-9.564 0-17.346 7.781-17.346 17.346v38.463c0 9.564 7.781 17.346 17.346 17.346h201.196c9.564 0 17.346-7.781 17.346-17.346v-38.463c0-9.564-7.781-17.346-17.346-17.346z"/><path d="m55.526 249.055h-18.383c-6.437 0-11.673-5.236-11.673-11.673v-21.365c0-1.104.896-2 2-2h37.729c1.104 0 2 .896 2 2v21.365c0 6.437-5.237 11.673-11.673 11.673zm-26.056-31.037v19.365c0 4.231 3.442 7.673 7.673 7.673h18.383c4.231 0 7.673-3.442 7.673-7.673v-19.365z"/><path d="m218.837 249.055h-18.383c-6.437 0-11.673-5.236-11.673-11.673v-21.365c0-1.104.896-2 2-2h37.729c1.104 0 2 .896 2 2v21.365c0 6.437-5.237 11.673-11.673 11.673zm-26.056-31.037v19.365c0 4.231 3.442 7.673 7.673 7.673h18.383c4.231 0 7.673-3.442 7.673-7.673v-19.365z"/><path d="m65.3 191.307h-57.254c-1.104 0-2-.896-2-2v-31.099c0-1.104.896-2 2-2h47.581c6.437 0 11.673 5.236 11.673 11.673v21.426c0 1.105-.895 2-2 2zm-55.254-4h53.254v-19.426c0-4.231-3.442-7.673-7.673-7.673h-45.581z"/><path d="m247.934 191.307h-57.254c-1.104 0-2-.896-2-2v-21.426c0-6.437 5.236-11.673 11.673-11.673h47.581c1.104 0 2 .896 2 2v31.099c0 1.105-.896 2-2 2zm-55.254-4h53.254v-27.099h-45.581c-4.231 0-7.673 3.442-7.673 7.673z"/></g><path d="m173.712 173.758h-89.015c-4.294 0-7.774 3.481-7.774 7.775 0 4.294 3.481 7.775 7.774 7.775h89.015c4.294 0 7.775-3.481 7.775-7.775 0-4.295-3.481-7.775-7.775-7.775z" fill="#ff4397"/><path d="m45.124 204.349h-17.654c-1.104 0-2-.896-2-2s.896-2 2-2h17.654c1.104 0 2 .896 2 2s-.896 2-2 2z" fill="#690589"/><path d="m228.51 204.349h-17.654c-1.104 0-2-.896-2-2s.896-2 2-2h17.654c1.104 0 2 .896 2 2s-.896 2-2 2z" fill="#690589"/><path d="m180.777 62.509h-105.575c-8.125 0-15.384 5.077-18.171 12.708l-23.249 63.646h188.415l-23.249-63.646c-2.787-7.632-10.046-12.708-18.171-12.708z" fill="#f4efed"/><path d="m84.875 62.509h-9.673c-8.125 0-15.384 5.077-18.171 12.708l-23.249 63.646h9.673l23.249-63.646c2.788-7.632 10.047-12.708 18.171-12.708z" fill="#fff"/><path d="m198.948 75.217c-2.788-7.632-10.047-12.708-18.171-12.708h-9.673c8.125 0 15.384 5.077 18.171 12.708l23.249 63.646h9.673z" fill="#d6d1cf"/><path d="m222.197 140.863h-188.415c-.653 0-1.265-.319-1.639-.854s-.463-1.219-.239-1.832l23.249-63.646c3.063-8.387 11.121-14.022 20.05-14.022h105.574c8.929 0 16.987 5.635 20.05 14.022l23.249 63.646c.224.613.135 1.297-.239 1.832-.375.535-.987.854-1.64.854zm-185.555-4h182.695l-22.267-60.96c-2.49-6.815-9.038-11.394-16.293-11.394h-105.574c-7.256 0-13.803 4.579-16.293 11.394z" fill="#690589"/><path d="m57.033 101.175c-.228 0-.46-.039-.686-.122-1.038-.379-1.572-1.527-1.192-2.564l4.383-12c.378-1.038 1.529-1.573 2.564-1.192 1.038.379 1.572 1.527 1.192 2.564l-4.383 12c-.296.81-1.062 1.314-1.878 1.314z" fill="#690589"/><ellipse cx="127.99" cy="46.655" fill="#fcc24c" rx="37.71" ry="37.71" transform="matrix(.945 -.327 .327 .945 -8.221 44.463)"/><path d="m127.99 8.945c-1.115 0-2.216.058-3.307.153 19.276 1.676 34.403 17.845 34.403 37.557 0 19.711-15.126 35.881-34.403 37.557 1.091.095 2.192.153 3.307.153 20.827 0 37.71-16.883 37.71-37.71s-16.884-37.71-37.71-37.71z" fill="#dea42e"/><path d="m127.99 84.365c1.115 0 2.216-.058 3.307-.153-19.277-1.676-34.403-17.845-34.403-37.557 0-19.711 15.126-35.881 34.403-37.557-1.091-.095-2.192-.153-3.307-.153-20.827 0-37.71 16.883-37.71 37.71s16.883 37.71 37.71 37.71z" fill="#fce06a"/><path d="m127.99 86.365c-21.896 0-39.71-17.814-39.71-39.71s17.814-39.71 39.71-39.71 39.71 17.814 39.71 39.71-17.814 39.71-39.71 39.71zm0-75.42c-19.69 0-35.71 16.02-35.71 35.71s16.02 35.71 35.71 35.71 35.71-16.02 35.71-35.71-16.02-35.71-35.71-35.71z" fill="#690589"/><path d="m128.594 20.486c1.451 0 2.599 1.149 2.599 2.599v1.329c3.565.423 6.588 1.571 9.367 3.324.967.544 1.813 1.451 1.813 2.901 0 1.873-1.511 3.324-3.385 3.324-.604 0-1.208-.181-1.813-.544-2.115-1.269-4.17-2.176-6.225-2.659v11.603c9.186 2.297 13.114 5.983 13.114 12.45 0 6.648-5.197 11.06-12.873 11.785v3.626c0 1.451-1.148 2.599-2.599 2.599s-2.659-1.148-2.659-2.599v-3.747c-4.533-.483-8.702-2.115-12.389-4.714-1.028-.665-1.632-1.632-1.632-2.901 0-1.874 1.451-3.324 3.324-3.324.725 0 1.45.242 1.994.665 2.84 2.055 5.62 3.445 8.945 4.049v-11.905c-8.824-2.297-12.934-5.62-12.934-12.45 0-6.466 5.137-10.939 12.691-11.543v-1.269c.003-1.45 1.212-2.599 2.662-2.599zm-2.417 20.609v-10.697c-3.868.362-5.802 2.417-5.802 5.076 0 2.539 1.148 4.11 5.802 5.621zm4.774 8.4v11c3.868-.423 5.983-2.357 5.983-5.258 0-2.659-1.33-4.291-5.983-5.742z" fill="#690589"/><path d="m129.204 140.863c-.865 0-1.663-.566-1.918-1.438-.311-1.06.297-2.171 1.357-2.481l61.576-18.027c1.06-.31 2.171.297 2.481 1.357.311 1.06-.297 2.171-1.357 2.481l-61.576 18.027c-.188.055-.377.081-.563.081z" fill="#690589"/><path d="m173.712 191.307h-89.015c-5.39 0-9.775-4.385-9.775-9.775s4.385-9.774 9.775-9.774h89.015c5.39 0 9.774 4.385 9.774 9.774s-4.384 9.775-9.774 9.775zm-89.015-15.549c-3.184 0-5.775 2.59-5.775 5.774s2.591 5.775 5.775 5.775h89.015c3.184 0 5.774-2.591 5.774-5.775s-2.59-5.774-5.774-5.774z" fill="#690589"/></svg>